/* XPM */
static char *_b8f2d32b9294df0a61764a2184e1e42ixdkiekd9UpfhTa5[] = {
/* columns rows colors chars-per-pixel */
"32 32 205 2 ",
"   c #030418",
".  c #2F0004",
"X  c #32151A",
"o  c #3E232C",
"O  c #51100C",
"+  c #491616",
"@  c #54191D",
"#  c #6F1D1F",
"$  c #761916",
"%  c #682119",
"&  c #79241C",
"*  c #5A1C28",
"=  c #6B1C21",
"-  c #5F292E",
";  c #55282F",
":  c #42332C",
">  c #52312A",
",  c #402B34",
"<  c #4B2E34",
"1  c #42323D",
"2  c #5B3337",
"3  c #5E3A3E",
"4  c #4E2A2F",
"5  c #712A2A",
"6  c #792A26",
"7  c #653536",
"8  c #7B3B37",
"9  c #6F2D2F",
"0  c #272F42",
"q  c #363848",
"w  c #403D46",
"e  c #5F3942",
"r  c #583A49",
"t  c #6A3944",
"y  c #703843",
"u  c #1D4A5F",
"i  c #22424F",
"p  c #3A444E",
"a  c #314055",
"s  c #3E5155",
"d  c #0C4F60",
"f  c #21536E",
"g  c #3B5B72",
"h  c #345864",
"j  c #4F4E4C",
"k  c #57414E",
"l  c #4D4C57",
"z  c #55495A",
"x  c #64454F",
"c  c #784346",
"v  c #6B4752",
"b  c #6E535B",
"n  c #565866",
"m  c #6B5962",
"M  c #685C72",
"N  c #446576",
"B  c #546A75",
"V  c #696A76",
"C  c #831C1B",
"Z  c #88221E",
"A  c #852723",
"S  c #872929",
"D  c #972A2E",
"F  c #992827",
"G  c #99342F",
"H  c #832F35",
"J  c #8F3E3A",
"K  c #883731",
"L  c #963936",
"P  c #8A372F",
"I  c #A43138",
"U  c #91473E",
"Y  c #A7433B",
"T  c #B3453D",
"R  c #853E42",
"E  c #B23F46",
"W  c #AA3B42",
"Q  c #854547",
"!  c #9A4949",
"~  c #9D5149",
"^  c #8E4B53",
"/  c #944E53",
"(  c #9C5359",
")  c #9E5F5A",
"_  c #A84847",
"`  c #B44343",
"'  c #B54B4B",
"]  c #BC4B4A",
"[  c #BB4846",
"{  c #A35449",
"}  c #BA534D",
"|  c #B7544B",
" . c #BA4D51",
".. c #B84C54",
"X. c #AC5153",
"o. c #A75958",
"O. c #B35153",
"+. c #BA5552",
"@. c #B65659",
"#. c #BC555A",
"$. c #B85B58",
"%. c #B6615B",
"&. c #905C65",
"*. c #A15F60",
"=. c #BE5E60",
"-. c #8F717D",
";. c #927277",
":. c #B6726E",
">. c #C24A4D",
",. c #C24647",
"<. c #C1524E",
"1. c #C34C55",
"2. c #C94956",
"3. c #C45354",
"4. c #C1575A",
"5. c #C8585A",
"6. c #C1635B",
"7. c #CA5D61",
"8. c #D57E75",
"9. c #3F718C",
"0. c #456E84",
"q. c #4F7C93",
"w. c #5A7D95",
"e. c #567683",
"r. c #697383",
"t. c #637B8D",
"y. c #657E92",
"u. c #757B8D",
"i. c #8A6F82",
"p. c #84768D",
"a. c #688B8F",
"s. c #798995",
"d. c #70909B",
"f. c #578EAB",
"g. c #5F92A5",
"h. c #7A8FAC",
"j. c #7492AC",
"k. c #6499B3",
"l. c #7296B0",
"z. c #6995AE",
"x. c #75A5AC",
"c. c #74A4B8",
"v. c #68A6BB",
"b. c #59B0CB",
"n. c #59ADC5",
"m. c #77B6D7",
"M. c #69A5CA",
"N. c #7DCCDC",
"B. c #5FD1F6",
"V. c #67CBEE",
"C. c #72CCEB",
"Z. c #7DCCEB",
"A. c #79C7E3",
"S. c #6CD3EF",
"D. c #65D1EE",
"F. c #7CD1EC",
"G. c #64CDF4",
"H. c #6BCDF4",
"J. c #6DCEFB",
"K. c #74CEF2",
"L. c #7CCDF3",
"P. c #71CFFC",
"I. c #66D3F4",
"U. c #6CD3F4",
"Y. c #66D4FA",
"T. c #6CD2FA",
"R. c #6DD9FC",
"E. c #68D8F0",
"W. c #72D1F4",
"Q. c #72D2FB",
"!. c #7CD6F9",
"~. c #78D9FB",
"^. c #89838F",
"/. c #838699",
"(. c #8995A7",
"). c #81A2B5",
"_. c #C18881",
"`. c #D09090",
"'. c #98B4CA",
"]. c #8CB5D4",
"[. c #99B6D5",
"{. c #8DA7C2",
"}. c #87BFE0",
"|. c #8FC0CF",
" X c #98D3DB",
".X c #8BC2D7",
"XX c #A5C1CC",
"oX c #83CAE5",
"OX c #83CCEC",
"+X c #88C5E3",
"@X c #91C6E1",
"#X c #93CBE5",
"$X c #90CBED",
"%X c #81D1EC",
"&X c #8CD2E9",
"*X c #8BD5EB",
"=X c #99DCEE",
"-X c #95D4E6",
";X c #89CFF3",
":X c #83CAF4",
">X c #83D3F1",
",X c #8DD5F4",
"<X c #84D9FB",
"1X c #96D3F2",
"2X c #A3D2E7",
/* pixels */
"U.U.U.I.T.U.W.U.P.P.T.Y.J.Q.T.U.Q.T.U.U.W.W.T.U.U.U.I.Y.Y.P.T.Q.",
"T.U.U.U.U.Q.W.U.Q.Q.Y.T.J.T.T.T.T.T.U.U.T.U.U.Q.J.T.Y.T.T.T.U.U.",
"Y.T.T.Q.W.P.U.U.U.U.U.U.T.T.T.T.T.Q.P.Q.T.T.T.T.T.J.T.T.W.U.U.I.",
"T.T.T.J.T.T.U.U.U.E.S.U.U.U.T.Y.T.U.P.J.T.Y.U.T.T.Q.P.P.U.E.U.U.",
"T.T.T.J.T.T.T.U.T.T.U.I.Q.T.U.I.U.I.T.Q.T.Q.W.W.W.U.K.U.U.I.U.T.",
"J.T.Q.U.Y.Y.U.T.T.T.T.I.U.T.U.U.R.I.T.Q.T.T.W.K.U.U.S.U.U.U.T.T.",
"U.U.W.U.U.U.T.T.J.T.T.T.T.U.U.U.I.Y.U.H.T.Y.T.J.U.I.U.U.P.Q.T.T.",
"U.W.S.U.U.U.T.T.T.T.Y.T.T.U.W.U.U.U.H.U.Y.U.J.U.I.U.U.U.Q.Q.Q.Q.",
"U.T.T.U.T.U.J.P.H.T.B.Y.T.T.J.T.Q.~.~.~.S.H.T.T.~.J.I.U.W.C.n.N.",
"T.I.J.J.Q.U.P.K.%X>X,XOX}.}.$X$X].g.a.k.*XC.,XA.M.,XC.C.@Xf d N.",
"I.R.Y.Q.G.V.L.oXc.'.V z r x v x r t - X e.2X(.o   y.=X-XM r 0.&X",
"Y.U.Q.W.<X,X#Xx.l , y ( *.X.~ _ =.O.} o.r l ; @ - < s.n e t t.-X",
"Q.W.L.m.a.r.^.< 5 o._.o.X.....4.] >.] O.( ( X.+.$.{ % Q H 7 n  X",
"P.L.OXu p < + ~ 6.I J { ' ] 5.E [ ] >.' #.4.,.,.` | %.@.R 3 s x.",
"J.C.oXh ;.o.Q % Y 5.I I #.` <.G D 7.} ] 5.1.,.1.$.$.&.v r n a N ",
":X;X=XB 7 5 5 { $ T 2.2.' %.| | $ @.+.]  .` 2.] #.^ r /.[.l.w.[.",
"[.j.l.XX1 v :.6 _ $ 1.1...+._ $ 6 J & L @.#.[ <.L - s.2XoX%X,XF.",
"r.0 p z : . `.~ P A ` 3.7.+.& P 6 6 ! $ X.7.| $ # &.g OXP.U.H.S.",
"d.p b / ! K %.8.G C I <.,.3.C ! 8 = U 6 O.! O @ t i.g A.W.J.J.Q.",
"-Xs.e @ 5 8 8 %.$.Y _ ] T F D @.S = = J ^ 2 m l p.u.9.!.H.Q.P.P.",
"Z.$X{.n o : 4 7 c ~ { S S G ] Z A 5 Q i.p N g.f.k.f.N.W.U.T.H.Q.",
"T.C.OX@X'.(.s.u.M k 2 ; Q *.o.U { y m t.v.F.F.!.!.!.H.R.I.T.R.U.",
"S.U.H.C.OX;X*X&X&X@X].h.B l j : > m |.%X!.H.H.T.H.J.I.I.U.I.I.E.",
"S.U.Y.R.J.J.G.U.H.P.L.:X1X.Xx.a.V i b.R.G.Q.T.Y.T.T.I.U.Y.R.D.S.",
"Y.T.T.P.P.P.P.J.T.U.U.C.W.F.L.>X+XOXP.T.T.W.U.U.T.T.U.I.T.U.W.U.",
"T.T.T.Q.P.P.P.P.T.U.I.I.U.U.T.J.U.T.T.T.U.U.W.P.T.T.T.T.T.T.Q.P.",
"P.U.U.I.Y.T.T.T.T.Y.I.S.U.U.J.T.T.Y.Y.Y.U.U.T.T.T.T.T.Q.P.P.T.T.",
"L.W.S.E.Y.Y.T.T.R.U.E.I.U.W.T.T.Y.Y.Y.U.S.P.P.T.Y.T.T.J.W.T.T.Y.",
"U.U.U.U.T.Y.T.U.U.U.U.U.U.U.T.T.R.U.U.T.Q.P.T.W.U.U.U.T.U.P.J.Q.",
"Y.T.T.T.T.Y.Y.U.U.U.H.W.T.T.U.U.T.U.U.W.T.Q.P.U.U.E.I.T.J.P.Q.J.",
"T.T.T.T.T.I.U.U.P.K.P.J.T.T.T.T.T.T.W.S.U.Y.T.U.U.I.I.T.T.W.T.U.",
"P.Q.R.U.T.T.U.T.Q.P.P.P.T.T.U.Y.T.T.K.S.Y.T.T.U.R.I.T.T.W.U.I.I."
};
