/* XPM */
static char *coin_wall[] = {
/* columns rows colors chars-per-pixel */
"32 32 183 2 ",
"   c None",
".  c #05190F",
"X  c #181A0B",
"o  c #141A0C",
"O  c #060B17",
"+  c #041C1A",
"@  c #191B14",
"#  c #171B14",
"$  c #012519",
"%  c #003014",
"&  c #272C18",
"*  c #35391B",
"=  c #090F23",
"-  c #091326",
";  c #061A21",
":  c #0A1A2E",
">  c #131A24",
",  c #0F1C3E",
"<  c #0A1330",
"1  c #131A36",
"2  c #151C3B",
"3  c #1A1D38",
"4  c #062423",
"5  c #042A23",
"6  c #08222B",
"7  c #07222B",
"8  c #043426",
"9  c #19213A",
"0  c #21213D",
"q  c #2B243B",
"w  c #3C2C3F",
"e  c #4D2F37",
"r  c #452E3D",
"t  c #4A2F3A",
"y  c #432B37",
"u  c #4F3038",
"i  c #53323B",
"p  c #59363F",
"a  c #025222",
"s  c #005C22",
"d  c #016124",
"f  c #006B29",
"g  c #01672A",
"h  c #017B2F",
"j  c #0A7B2B",
"k  c #07723A",
"l  c #457F1E",
"z  c #5C6313",
"x  c #676B17",
"c  c #4F4D3D",
"v  c #0F1C40",
"b  c #131E41",
"n  c #1B2141",
"m  c #182349",
"M  c #222441",
"N  c #2D2945",
"B  c #252849",
"V  c #332B45",
"C  c #3B2C41",
"Z  c #432F40",
"A  c #5B3740",
"S  c #5D3842",
"D  c #623C45",
"F  c #663E48",
"G  c #683F4A",
"H  c #027741",
"J  c #4E5240",
"K  c #6C424C",
"L  c #70444F",
"P  c #734651",
"I  c #764854",
"U  c #7A4A56",
"Y  c #7E4D59",
"T  c #814E5B",
"R  c #85515E",
"E  c #895360",
"W  c #875360",
"Q  c #1E982F",
"!  c #009736",
"~  c #6E8013",
"^  c #758818",
"/  c #58BD32",
"(  c #5BCC37",
")  c #79D83E",
"_  c #00874F",
"`  c #048E4F",
"'  c #0A934D",
"]  c #009551",
"[  c #039D52",
"{  c #16935E",
"}  c #179F52",
"|  c #01AD49",
" . c #01A346",
".. c #02B846",
"X. c #00A551",
"o. c #01AF52",
"O. c #00B552",
"+. c #02B953",
"@. c #15B14F",
"#. c #21AF4B",
"$. c #2BB04C",
"%. c #179360",
"&. c #2B9C6D",
"*. c #17B460",
"=. c #02C347",
"-. c #1BCF4E",
";. c #03C052",
":. c #17C857",
">. c #02DB54",
",. c #25C954",
"<. c #0CE954",
"1. c #36EB4D",
"2. c #28EA51",
"3. c #17DD64",
"4. c #21CB69",
"5. c #15E465",
"6. c #3DEB61",
"7. c #2AE461",
"8. c #62E541",
"9. c #6EE678",
"0. c #8E901F",
"q. c #929518",
"w. c #81A01B",
"e. c #A6A612",
"r. c #A5A41C",
"t. c #8ABF37",
"y. c #87D135",
"u. c #A0D93A",
"i. c #96E332",
"p. c #ABE733",
"a. c #FFFF1F",
"s. c #FFFF28",
"d. c #FFFF31",
"f. c #8A857F",
"g. c #A3A067",
"h. c #BDBA6A",
"j. c #8BD053",
"k. c #B5DD4D",
"l. c #80ED40",
"z. c #91F144",
"x. c #89F150",
"c. c #86ED58",
"v. c #B3E34D",
"b. c #8CE068",
"n. c #B7E76A",
"m. c #C3C84F",
"M. c #D4F759",
"N. c #FFFD40",
"B. c #FDFC53",
"V. c #CAF36F",
"C. c #FEFB65",
"Z. c #E3F67A",
"A. c #77EB8E",
"S. c #88C58C",
"D. c #A1D09C",
"F. c #8AED88",
"G. c #88EA93",
"H. c #B5EA94",
"J. c #88DCA4",
"K. c #B8D6BC",
"L. c #B4D7A2",
"P. c #B2EEB9",
"I. c #B8EEBF",
"U. c #BAE2BF",
"Y. c #C7F29B",
"T. c #DEF39B",
"R. c #C8EC8A",
"E. c #FFF98E",
"W. c #E8EC98",
"Q. c #C1C7B1",
"!. c #C4EFBF",
"~. c #FFF6A2",
"^. c #EDF3B8",
"/. c #FCF4BC",
"(. c #BED9C3",
"). c #B5EEC0",
"_. c #EDEEC3",
"`. c #FFF4C3",
"'. c #FFF3CB",
"]. c #EEF1DA",
"[. c #F2EFD6",
"{. c #FEF1EC",
"}. c #F6F1E5",
/* pixels */
"  E E W R R E K Y T D T R W E K I P p P R K P R G R W R R E E   ",
"  U R R F K U D P K p D F U U D S S p A D p D I D P P D U E Y I ",
"  S K K S S S p p p p p p A A p p p u p p p p p p A S A F K D A ",
"P S p A p p p p p p u u u p p u u u u u e e u p p p p p p p p K ",
"R U G p u u u u u u u u u u u u u u u u u u u u u u u u p S P R ",
"K Y K u u u u u u u u u u u u u u u u u u u u u u u u u e S U P ",
"p A p u u u u u u u u u u u e e u u u p u u u u u u u u u p A p ",
"D D S u u u u u u C V V V V V V V V V V V V V e u u e e u p D D ",
"R I D u u u u u w n 2 b , v , , , , v v , , b N e u u u e A L T ",
"D S p u u u u C n ; . . o X X X X X X X # # # 9 N e u u u p p D ",
"P P D u u u C b ; g ! Q w.e.e.e.e.e.e.r.g.g.0.& 1 N u u u A L P ",
"E R K u p C 2 6 s ..>.-.l.M.B.s.a.a.d.C.E.Z.p.~ * 1 V u e D Y E ",
"P D p u e q 4 a =.>.+.[ :.G.T.B.N.N.C./.Z.z.1.i.^ & 9 r u p D K ",
"S S p u q O d =.>.+.] ` [ 4.A.^.`./.'.].F.2.<.1.y.q.# 3 r p S A ",
"A p p e 2 O l c.G.j.y.j.S.J.P.}.{.{.{.}.P.F.x.F.Y.h.# < C p p p ",
"S S S p M = z m._.V.p.k.L.K.K.(.].'.^.!.).H.v.H.K.f.> 2 Z p A S ",
"R R R D r M > c Q.9.-.} { %.{ &.K.~.M.6.5.:.@.:.k > n w p Y R R ",
"Y Y K p u r 0 9 J t.8.+.] _ _ { K.'.Y.7.;.+.| d 5 2 w u p D I Y ",
"S S A p u u r 9 > x / >.+.] ] *.U.`.R.,.+. .h 4 1 C u u p p S S ",
"S A p u u u u w m > a ..>.o.X.3.I.W.u.#.| h + b V u u u p p p S ",
"S A p u u u p e C n 7 a ..o.X.3.P.D.$...f 5 9 V r u u u u u p S ",
"A p p e u u u p u V b 6 a k ] @.n.b.| f 5 , B u u u u u u u p A ",
"L D p u u u u u u e V n - 8 k ' ) ( h 4 2 N r u u u u u u p S K ",
"Y I F u u u u u u u p C m - $ H @.j + n N u u u u u u u e S P Y ",
"p p p e u e e e e e e e w 0 : $ % 5 2 C r e e u u u u u u p p p ",
"A D S e u u e e e e u u u r 0 - = 1 C u u u e e u u u u u p D S ",
"I R P u u u u u u u u u u u r V V w u u u u u u u u u u e D R Y ",
"R K S p p p p p u u u u u u u u u u u u u u u u u p p u p S F T ",
"  S A S p p A p p p u u u p p p u u u u u u p p p p p p p S A D ",
"  D I I S S D p S A p p p D D p p p p p p p p D p D D S L U K D ",
"  R E R L U R K U P S K P R R K F D p D K S F T F Y T K Y E R T ",
"        E E E K Y R G R E E E K U Y D U E K U R G R E R E       "
};
