/* XPM */
static char *_f46122ac5a74d5eafa42a56f6c365a5cPw2NiQ81Dj4VhL4[] = {
/* columns rows colors chars-per-pixel */
"32 32 211 2 ",
"   c #010310",
".  c #310305",
"X  c #2C0F13",
"o  c #3F362D",
"O  c #282C38",
"+  c #3C2B35",
"@  c #451918",
"#  c #521A1D",
"$  c #450803",
"%  c #6C1B1C",
"&  c #691716",
"*  c #7B1C1B",
"=  c #78150F",
"-  c #67201E",
";  c #7B2115",
":  c #571D28",
">  c #6B1A20",
",  c #47272D",
"<  c #592729",
"1  c #4C3128",
"2  c #4E2A34",
"3  c #573438",
"4  c #522E36",
"5  c #7C2A22",
"6  c #7A2B2D",
"7  c #742A27",
"8  c #7A322B",
"9  c #742930",
"0  c #793735",
"q  c #672B31",
"w  c #71453C",
"e  c #3C3D4A",
"r  c #303C52",
"t  c #492C40",
"y  c #5C3842",
"u  c #5A3747",
"i  c #533B51",
"p  c #683C45",
"a  c #713F42",
"s  c #134B5B",
"d  c #3E424B",
"f  c #224450",
"g  c #38576A",
"h  c #23556C",
"j  c #4B464B",
"k  c #53424C",
"l  c #4F514C",
"z  c #494B56",
"x  c #554A57",
"c  c #565456",
"v  c #44555C",
"b  c #63434E",
"n  c #6C4147",
"m  c #65545E",
"M  c #7D515E",
"N  c #75484D",
"B  c #595666",
"V  c #56546A",
"C  c #486064",
"Z  c #4A6278",
"A  c #546776",
"S  c #6A6E76",
"D  c #64757C",
"F  c #736366",
"G  c #86191B",
"H  c #941B20",
"J  c #8B2126",
"K  c #8B2828",
"L  c #982C2C",
"P  c #8E3A2F",
"I  c #802F35",
"U  c #992A32",
"Y  c #873835",
"T  c #973C3B",
"R  c #A83B3B",
"E  c #B23835",
"W  c #8B403D",
"Q  c #A44839",
"!  c #8D3E44",
"~  c #A83F44",
"^  c #8A4546",
"/  c #9A4949",
"(  c #95544C",
")  c #864950",
"_  c #934C53",
"`  c #974E5F",
"'  c #99585B",
"]  c #A64746",
"[  c #B64543",
"{  c #BC4544",
"}  c #BC4649",
"|  c #B44E4A",
" . c #BC4C4C",
".. c #B54946",
"X. c #BA534C",
"o. c #B8554B",
"O. c #A84E53",
"+. c #B94D53",
"@. c #AC5351",
"#. c #A75759",
"$. c #B65255",
"%. c #BC5353",
"&. c #BA535C",
"*. c #B85959",
"=. c #AA534A",
"-. c #AF645E",
";. c #BB605A",
":. c #805D63",
">. c #A35A66",
",. c #B55560",
"<. c #96717E",
"1. c #BC6261",
"2. c #B76E68",
"3. c #B07372",
"4. c #C34B4D",
"5. c #C14543",
"6. c #C2524E",
"7. c #CA534F",
"8. c #C44E56",
"9. c #C14F59",
"0. c #C45253",
"q. c #C75858",
"w. c #CB5C61",
"e. c #D37E79",
"r. c #406F83",
"t. c #4E7B8E",
"y. c #557682",
"u. c #467390",
"i. c #577C97",
"p. c #64768B",
"a. c #7F778C",
"s. c #777C92",
"d. c #8B7687",
"f. c #618D8C",
"g. c #7C808B",
"h. c #788795",
"j. c #6E8C99",
"k. c #598DB2",
"l. c #578FA6",
"z. c #6596AA",
"x. c #7697AB",
"c. c #7098B1",
"v. c #6592B3",
"b. c #59AABF",
"n. c #7DA8B1",
"m. c #6BA5A9",
"M. c #5AB2CA",
"N. c #71A2C0",
"B. c #79B4C8",
"V. c #71B0CD",
"C. c #79C6D9",
"Z. c #67CCED",
"A. c #7CC6E3",
"S. c #7CCCE5",
"D. c #75CAE9",
"F. c #61D1E6",
"G. c #67D5EF",
"H. c #6CD4EE",
"J. c #7BD2EF",
"K. c #79D4E8",
"L. c #6DCEF5",
"P. c #6DCEFC",
"I. c #65CFF8",
"U. c #73CDF4",
"Y. c #7BCCF5",
"T. c #71CEFC",
"R. c #78CEFD",
"E. c #65D5F3",
"W. c #6CD3F4",
"Q. c #62D8F4",
"!. c #66D5FA",
"~. c #6CD2FA",
"^. c #65D8F6",
"/. c #72D2F4",
"(. c #7BD3F4",
"). c #72D2FB",
"_. c #79D3FA",
"`. c #72D9F4",
"'. c #88899B",
"]. c #86878C",
"[. c #BD8884",
"{. c #8B92A2",
"}. c #8E93B0",
"|. c #80A2AE",
" X c #8EABB9",
".X c #D09390",
"XX c #81B8CC",
"oX c #9BB6CC",
"OX c #9BAFD0",
"+X c #8EB2CF",
"@X c #A1B9C3",
"#X c #85C6DB",
"$X c #97C9DA",
"%X c #93D0D5",
"&X c #84C4E4",
"*X c #82CDEB",
"=X c #8ACEEA",
"-X c #83C8E7",
";X c #93C7E8",
":X c #83D3E6",
">X c #8DD4EB",
",X c #85D7EC",
"<X c #96D1E1",
"1X c #83CAF5",
"2X c #8DCFF2",
"3X c #82D3F2",
"4X c #81D4FC",
"5X c #86D8F6",
"6X c #97D9F1",
"7X c #AFCEE3",
"8X c #A3D7EE",
/* pixels */
"W.H.E.W.T.T.!.!.~.!.E.E.W.!.W.W.)./.E.Q.U.Y.T.~.~.W.~.~.P.P.W.W.",
"/.W.E.W.~.).W.!.~.~.W.E.~.~.~.~.P.~.E.E./.Y.Y.W.U.~.~.~.~.).W.W.",
"~.~.~.~.~.U.W./.W././.W.W.~.T.T.~.~.~.!.~./.U.W.~.~.~.~.~.~.!.~.",
"~.~.~.~.W.W.H./.U.W././.~.).T.P.T.~.~.~.~.W.W.W.~.!.!.!.E.E.W.!.",
"~.~.~.W.P.~.~.W.~.~.).~.~.!.~.~.~.~.P.T.~.).).W.^.Q.E.W.W.W.P.P.",
"~.~.W.~.~.~.W.~.~.~.~./.~.~.W.^.~.~.T.T.~.P.~.~.^.^.E.W./.~.P.T.",
"~.W./.~.~.~.W.W.G.W.W.W.~.~.~.~.W.W.~.~.~.~.P.P.!.!.W.T.T.T.).~.",
"E.W.W.~.~.~.~.W.W.H.G.W./.W.~.~.W.L.W.W.~.!.~.P.P.L.U.T.T.T.(./.",
"W.W.~.P._.).P.R.L.W.E.Q.E.W.~.P._._._.`.F.^.~._._./.Z.W.(.D.b.C.",
"W.).).I.P.P.R.Y.*X*X:X:X#X&X&X;X+Xv.f.m.5XC.,XV.V.=XJ.S.&Xh s C.",
"L.~.P._.E.E._.B.B. XS k u b b k u p < X p.7X{.O   p.8X$XB z Z ,X",
"W.W.U.(.5X,X<Xn.d 4 n _ ,.O.O.O.1.@.%.#.u i < # < 4 h.B 3 3 j.>X",
"W.W.J.B.y.D ]., q =.[.' O.9.+.+.X.X.[ $.>.` ,.&.*./ q ) 6 n C %X",
"W./.C.s j 3 @ ( q.Q Y / +.4.q.[  .4.8.} *.&.+.5.{ X.;.#.! 3 v |.",
").U.A.g <.' ^ - R 0.R ~ X.| 6.E L w. .{ 0.q.4.6.q.;.` n x x d Z ",
"1X2X8Xy.y 9 8 ] = [ 8.8.| *.o.Q * *.%.6.6.Q  ...*.^ p '.oXc.l.+X",
"OXx.n.@X+ N 3.8 / * 9.+.$.$.Q ; ; P * T $.%.o.o.P < h.8X&X1X,XK.",
"D O e k , . .X/ P K [  .q.$.; Y 7 6 ] & #.w.=.& % :.C A.R.I.G.F.",
"j.e :._ ^ Y -.e.L G E 5.4.q.G ~ I > ! J %.] $ @ p d.g -X_.~.P._.",
"%Xh.t : 7 0 0 2.&.Q { 7.5.H K $.6 % > ! _ q F z a.s.u.J.L.P.).P.",
"S.=X+XV t 2 , 3 0 ( @.K H R %.J 5 7 ) d.i Z z.l.v.k.A._.L._.I.).",
"W.H.S.+XOX}.'.d.S j 4 , N >.#.^ ( w m p.c.3X(.(.4X4X).Z.).L.~.!.",
"E.`.)./.Y.1X5X>X:XC.XXx.A z l 1 1 c $X5X_.T.I.W.W.W.E.W.).W.W.^.",
"E.E.~.~.~.~.W.Q.G.G./.3X>X#Xm.f.D f M.`.P._.I.W.E.W.~.~.`.W.H.^.",
"~.~.T.~.~.E.W.W.W.W.W.L.U.Y.(.3X-X*X~.!.~./.H.W.W.P.~.~.W.W.W.~.",
"~.~././.W.E.W.W.).).~.~./.).T.P.T.).~.~.W./.W.E.W.).T.W.W.W.~.!.",
"~.).W.G.W.E.W.~.I.~.~.~.W.W.T.U.T.P.!.!.W.E.W.!.!.!.P.T.W.~.!.!.",
"T.~.E.W.E.W.!.~.~.~.~.~.~.W.).R.T.~.~.W.W.W.W.~.!.~.~.T.T.~.~.~.",
"~.W./.W./.W.~.~.~.).P.~.!.~.~.~.~.W.~.~.).T.~.~.W.W.W.W.T.~.P.~.",
"W.).W.W.W.W.W.W.~.).).P.~.~.W.W.~.W.W./.T.T.T.L.W.W.E.W.~.T.P.).",
").W.W.!.E.~.~.W.L.P.T.T.).W.W.^.E.W././.W.~.T.T.~.W.!.~.T./.W.W.",
"U.).~.~.!.^.~.~.~.).T.T.T.W.E.Q.!.E.W.H.~.~.T.).~.!.E.!.)./.H.H."
};
