/* XPM */
static char *exit[] = {
/* columns rows colors chars-per-pixel */
"32 32 167 2 ",
"   c None",
".  c #070302",
"X  c #0B0604",
"o  c #0E0A05",
"O  c #0C0809",
"+  c #120B01",
"@  c #14090B",
"#  c #180A0C",
"$  c #121005",
"%  c #1B0D12",
"&  c #171616",
"*  c #1F1014",
"=  c #231C09",
"-  c #33180F",
";  c #230817",
":  c #221214",
">  c #27151A",
",  c #28161B",
"<  c #2D1A1C",
"1  c #221C1A",
"2  c #35131B",
"3  c #3F1D15",
"4  c #292907",
"5  c #3E2B01",
"6  c #3E3C08",
"7  c #2A2917",
"8  c #3E3B12",
"9  c #350127",
"0  c #2F1B20",
"q  c #321D23",
"w  c #3C0A31",
"e  c #392127",
"r  c #3B2229",
"t  c #3F3E29",
"y  c #3D3635",
"u  c #441E16",
"i  c #482C01",
"p  c #522F00",
"a  c #5A3604",
"s  c #653E02",
"d  c #613F16",
"f  c #42272E",
"g  c #43282F",
"h  c #542224",
"j  c #452A31",
"k  c #4C2E36",
"l  c #4F3038",
"z  c #56343D",
"x  c #58363E",
"c  c #782C33",
"v  c #7A3726",
"b  c #3F4009",
"n  c #4F4507",
"m  c #474213",
"M  c #6D4D03",
"N  c #675017",
"B  c #60610F",
"V  c #6E6915",
"C  c #7E7E15",
"Z  c #5E5C3D",
"A  c #5A3740",
"S  c #5E3943",
"D  c #652942",
"F  c #712E41",
"G  c #603B44",
"H  c #673F48",
"J  c #683F4A",
"K  c #5F5958",
"L  c #6B414B",
"P  c #70444F",
"I  c #744752",
"U  c #774854",
"Y  c #7A4B56",
"T  c #7C4C58",
"R  c #6D5752",
"E  c #7E7B5B",
"W  c #79626C",
"Q  c #8D5A00",
"!  c #A25E09",
"~  c #9F6E13",
"^  c #AF6611",
"/  c #B5641B",
"(  c #B77B11",
")  c #854027",
"_  c #915529",
"`  c #B65C2E",
"'  c #A3493C",
"]  c #AF5B37",
"[  c #B35A32",
"{  c #94702D",
"}  c #B76532",
"|  c #A77B3C",
" . c #C56928",
".. c #CC7424",
"X. c #C27931",
"o. c #8E3549",
"O. c #933A46",
"+. c #993C45",
"@. c #9E4C41",
"#. c #9E5B46",
"$. c #814F5B",
"%. c #85515E",
"&. c #98734C",
"*. c #8A5461",
"=. c #875360",
"-. c #9E7272",
";. c #7D8012",
":. c #B58C05",
">. c #BF9009",
",. c #A7AB1C",
"<. c #B0AD1A",
"1. c #B5B71C",
"2. c #B5B717",
"3. c #BD9F25",
"4. c #BCBB2F",
"5. c #CC8300",
"6. c #CC9B09",
"7. c #DE8817",
"8. c #ED910D",
"9. c #ED9F0E",
"0. c #F49606",
"q. c #F49906",
"w. c #C4BF1F",
"e. c #ECA207",
"r. c #FAB60B",
"t. c #F2B918",
"y. c #D5862F",
"u. c #C58832",
"i. c #C5982C",
"p. c #EB9623",
"a. c #D4AC2F",
"s. c #CEA03E",
"d. c #DAA834",
"f. c #FEC90D",
"g. c #F8CD18",
"h. c #F5D71C",
"j. c #FFE515",
"k. c #F8E41C",
"l. c #D9D725",
"z. c #F3DE23",
"x. c #EBEC22",
"c. c #E9E32A",
"v. c #FFFC24",
"b. c #F9F222",
"n. c #F3EE3F",
"m. c #FFFF34",
"M. c #B68741",
"N. c #B6B446",
"B. c #B59467",
"V. c #F2B24C",
"C. c #CB9570",
"Z. c #FFEE42",
"A. c #FBF759",
"S. c #FBD26E",
"D. c #FFFC7F",
"F. c #BA7D93",
"G. c #B5AF84",
"H. c #ACA29B",
"J. c #B5A495",
"K. c #CEA69A",
"L. c #DEADA8",
"P. c #FCF494",
"I. c #D5C4BA",
"U. c #E9D6A6",
"Y. c #E9E2A8",
"T. c #ECE4C4",
"R. c #F8EFD3",
/* pixels */
"  *.*.=.%.%.*.L T $.H $.%.*.*.L U I x I %.L I *.L %.*.%.%.*.*.  ",
"  Y %.%.H L Y G I L z G H Y Y G S S z A G x G U G I U G T *.T U ",
"  S L L S S S z x z z z z A A z z z l z z z z A z A S A H L G A ",
"I S x A z z x z z z l l l z z z l l l l l l l z z z z z x x x L ",
"%.Y L z z l l l l l l l l l l l l l l l l l l l l l l l z S U %.",
"L T L l l l l l l l l l l l l l l l l l l l l l l l l l k S T I ",
"z A z l l l l l l l l l l l l k l l l l l l l l l l l l l z A x ",
"G G S l l l l l l l l l l l l k l l l l l l l l l l l l l z G G ",
"%.U G l l l l l l l l l l l l l l l l l l l l l l l l l l A P $.",
"G S z l l l l l l l l l l l l l l l l l l l l l l l l l l z x G ",
"I I G l l l l l l l l l l l l l l l l k k k k k k k l l l A L I ",
"*.%.L l l l l l l l l l l l l l l l k % @ @ @ @ @ : k l l G T *.",
"I G x l l l l l l l l l l l l l l f < u R E C ;.N u < j l z G L ",
"S S x l l l k g f f f f f f f f j > + #.L.U.l.c.d._ o e l z S S ",
"A z z l l l f O X X X X X X X O X . & I.F.D = F s.w.$ r l z z x ",
"S S S z l q y H.N.2.1.1.G.B.( J.M.:.4.R.W ; q ; ~ 6.+ r z A S S ",
"%.%.%.G k > t P.Z.j.j.j.D.S.p.P.V.t.m.P.Z @ k X Q 5.+ r z T %.%.",
"T T L x l , 6 k.r.0.0.q.h.a.] z.u.u.b.v.B @ k X Q 5.+ r z G U T ",
"S S A z l , 5 e...[ ` [ } @.O.9.] [ r.v.B % k O Q 5.+ r z x S S ",
"S A z z l , + p c +.' o.h 2 2 a 3 u M x.{ 9 % w / 5.+ r l z x S ",
"S A z l l , & K &.X. .O.; . % % * X o 3.C.-.V | y.^ + e l l z S ",
"A z z l l , y T.A.f.8.` - % k k k q @ ) K.Y.c.x.i.v @ r l z z A ",
"P G x l l , 8 n.g.7. .8.i % l l l k f % 1 7 4 4 = : g k l z S L ",
"T U H l l > b b.f.! d g.n % l l l l k q q q q q 0 e k l l S I T ",
"z x z l l q 8 <.>.s 7 ,.m < l l l l l l l l l l l l l l l z x z ",
"S G S l l l r o X < f @ e l l l l l l l l l l l l l l l l z G S ",
"U %.I l l l k f r j k f k l l l l l l l l l l l l l l l k G %.T ",
"%.L S z z z z z l l l l l l l l l l l l l l l l l z z l z S H $.",
"  S A S z x A z z z l l z z z z l l l l l l z z z x x z x S A G ",
"  G U U S S G x S A z z x G G x z z l z z z z G z G G S P Y L G ",
"  %.*.%.P Y %.L Y I S L I %.%.L H G z G L G J $.H T $.L T *.%.$.",
"        *.*.*.L T %.J %.*.*.*.L Y T G T *.P Y *.J %.*.*.*.      "
};
