/* XPM */
static char *_3721186d3604f31d1cb35761672dfdaM5JxGIs6sSTWdfDM[] = {
/* columns rows colors chars-per-pixel */
"32 32 190 2 ",
"   c #646C3D",
".  c #617E3E",
"X  c #776638",
"o  c #785F41",
"O  c #74654C",
"+  c #776748",
"@  c #7A6850",
"#  c #7C7B63",
"$  c #82663F",
"%  c #886640",
"&  c #886841",
"*  c #846745",
"=  c #807C59",
"-  c #8E7C66",
";  c #7D9450",
":  c #72A74F",
">  c #6ABD45",
",  c #6EB74C",
"<  c #64BC49",
"1  c #6DBC4C",
"2  c #73BB4B",
"3  c #7FAC5B",
"4  c #6DBF53",
"5  c #69B15F",
"6  c #64BA5B",
"7  c #6BBA5B",
"8  c #74BC53",
"9  c #79BD55",
"0  c #75B85B",
"q  c #5FBD67",
"w  c #63BD63",
"e  c #69BC67",
"r  c #62BE6C",
"t  c #73BC6A",
"y  c #7DB063",
"u  c #64BC75",
"i  c #6BBC73",
"p  c #65BF79",
"a  c #77BD74",
"s  c #6CC146",
"d  c #67C14F",
"f  c #6CC24B",
"g  c #73C24D",
"h  c #67C056",
"j  c #6CC25B",
"k  c #72C254",
"l  c #6DC265",
"z  c #63C070",
"x  c #67C27F",
"c  c #828C58",
"v  c #83826E",
"b  c #84BA62",
"n  c #82A27B",
"m  c #5FBF91",
"M  c #6EBC8A",
"N  c #68BE9B",
"B  c #64BC96",
"V  c #5FC19B",
"C  c #63C286",
"Z  c #6FC88E",
"A  c #6FCC86",
"S  c #71C683",
"D  c #67C296",
"F  c #6BC592",
"G  c #6ECA97",
"H  c #68C598",
"J  c #6ECB9E",
"K  c #7BC797",
"L  c #66C1A4",
"P  c #6ACEAA",
"I  c #70C6AD",
"U  c #72CCA8",
"Y  c #6CC7B8",
"T  c #6AC7B6",
"R  c #71C6BF",
"E  c #73CCB0",
"W  c #75D6BA",
"Q  c #67C6C0",
"!  c #6CCDC5",
"~  c #68C4C3",
"^  c #65D0C8",
"/  c #6ED4CE",
"(  c #6AD0C3",
")  c #73D0C8",
"_  c #74D2C0",
"`  c #70CCD7",
"'  c #78C9DE",
"]  c #73CFDA",
"[  c #6DD4D9",
"{  c #78D4D4",
"}  c #74D2DD",
"|  c #74D6D8",
" . c #6ECAE4",
".. c #6DCDEE",
"X. c #7CC5E3",
"o. c #73CCE3",
"O. c #7CCCE3",
"+. c #74C7EB",
"@. c #74CCEC",
"#. c #78CDEC",
"$. c #74C7E5",
"%. c #6DD3E5",
"&. c #65D3EC",
"*. c #6CD3ED",
"=. c #6CD9EB",
"-. c #72D4E5",
";. c #7CD8E7",
":. c #72D2ED",
">. c #7AD3EA",
",. c #6DCEF5",
"<. c #6DCEFC",
"1. c #64CFF1",
"2. c #73CEF4",
"3. c #71CEFC",
"4. c #66D4F4",
"5. c #6CD3F4",
"6. c #65D8F6",
"7. c #6DDAF6",
"8. c #65D4FB",
"9. c #68D4FB",
"0. c #69D5F9",
"q. c #6CD4FA",
"w. c #68D3FD",
"e. c #6AD2FE",
"r. c #6CD0FF",
"t. c #6ED1FE",
"y. c #69D4FE",
"u. c #6CD2FB",
"i. c #6CD9FE",
"p. c #63D9FD",
"a. c #70D2F2",
"s. c #72D3F4",
"d. c #7BD3F3",
"f. c #70D1FA",
"g. c #71D1FE",
"h. c #71D2FB",
"j. c #79D3FC",
"k. c #8B9C94",
"l. c #889F99",
"z. c #8BA28E",
"x. c #8DA397",
"c. c #90A09D",
"v. c #A5A195",
"b. c #94A3A0",
"n. c #89CCBB",
"m. c #89D0BE",
"M. c #82D8BD",
"N. c #8FC5D1",
"B. c #87CEDE",
"V. c #82D3DE",
"C. c #88D1DA",
"Z. c #AFD2D8",
"A. c #8CCDE4",
"S. c #80CFEE",
"D. c #8ACAE9",
"F. c #84C7E2",
"G. c #80D6E5",
"H. c #8ED0EA",
"J. c #93D1E6",
"K. c #9AD4E6",
"L. c #98D6ED",
"P. c #95D8E9",
"I. c #84D0F0",
"U. c #89D6F0",
"Y. c #95D7F1",
"T. c #A0CFE3",
"R. c #A0D8E7",
"E. c #A5DBEC",
"W. c #A6DDF1",
"Q. c #A9EAFF",
"!. c #ADE3FB",
"~. c #BEEDF7",
"^. c #B2E5FB",
"/. c #BBE3F8",
"(. c #BEEBF9",
"). c #B2E3F2",
"_. c #BDF3FF",
"`. c #BFFAFF",
"'. c #C4EFFF",
"]. c #C2F3FF",
"[. c #CDFAFF",
"{. c #D4FEFF",
"}. c #DAFFFF",
"|. c #FCF3EC",
" X c #E4FFFF",
".X c #EBFFFF",
"XX c #F5FFF5",
"oX c #FEFEF4",
"OX c #F3FFFE",
"+X c #FDFDFD",
/* pixels */
"5.5.5.a.,.f.*.5.u.e.w.w.u.5.5.5.*.:.,.3.3.<.3.2.a.5.9.y.t.<.3.g.",
"5.f.5.5.f.5.*.5.q.y.w.8.&.5.5.s.5.5.u.u.3.s.d.#.*.*.9.y.e.t.g.u.",
"t.u.u.5.a.5.5.5.5.u.9.u.5.5.5.5.*.4.0.4.-.-.{ ] *.6.4.9.u.f.a.*.",
"t.e.u.u.5.a.5.a.5.5.q.t.5.5.5.5.5.4.=.=.! L N L ( [ =.5.f.f.5.%.",
"9.e.e.u.f.a.3.u.f.5.,.,.3.f.j.3.3.f.5.^ C w 7 e x P %.7.f.a.5.5.",
"u.u.t.t.5.5.t.<.u.u.3.g.-.-.o.o.' ;./ D w f g k 6 F [ 9.5.5.g.3.",
"u.0.u.5.*.5.u.<.e.t.3.:._ J F F E M.K i 6 k 2 8 7 Z | 0.4.q.g.<.",
"5.0.q.5.*.4.e.e.t.g.3.} G r 6 w u S l e k 8 , 7 i U -.5.0.9.t.<.",
":.5.u.u.9.9.9.9.0.:.>.R q d d k h 7 0 9 f s l z W [ :.,.t.4.u.u.",
"..a.u.t.e.w.9.4.4.*.%.T l f k > f , 9 8 s f 6 A W | s.2.4.4.5.f.",
":.a.5.t.e.y.9.4.4.*.-.T q d 2 , 9 9 , f s s j l z H ` s.*.5.g.,.",
":.5.,.u.e.e.9.0.0.4.-.! M r i a y : 4 f g > k < j u ~ a.5.5.g.,.",
"5.5.,.g.t.e.u.u.5.5.s.-.! R ! n.n . b 9 8 j 1 g 9 i Q *.*.,.a.s.",
"5.5.u.f.g.<.f.u.5.,.5.f.:.-.:.C.z.  ; 3 t e 6 l 5 M / 7.3.2.a.*.",
"t.e.u.5.a.2.,.3.f.5.5.5.t.w.4.C.z.+ X c K C H B I ! *.7.<.3.q.4.",
"<.e.u.5.:.*.a.5.,.a.5.0.<.w.4.} k.+ $ # m.) { { } -.&.9.g.<.u.p.",
"<.<.u.5.s.5.4.5.5.a.5.a.h.4.&.G.c.O & # C.&.-.-.-.*.4.0.u.,.u.9.",
"3.5.u.u.5.5.5.9.9.s.f.,.a.h.0.o.x.O $ # B.9.5.@.5.*.9.u.h.f.9.4.",
"u.5.5.u.t.t.<.e.p.p.8.y.h.u.u.U.l.@ * v C.f.8.8.u.<.t.u.f.f.h.5.",
"4.5.9.u.t.t.3.e.8.p.u.u.2.2.2.F.k.O X v N.@.u.y.t.t.u.,.,.f.f.f.",
"4.7.5.u.t.<.3.t.1.5.#.O.F.F.D.T.b.- - v.Z.A.O.,.t.u.7.4.9.9.5.5.",
"4.4.u.f.t.3.t.2.@.O.J.^.[.{.{. X.X+X|.|.OX X].I.,.0.*.5.0.9.4.0.",
"4.0.f.3.<.t.5.@.D.'..XOX.XOXOX.X+X+X+X+X+XOX.X'.S...%.*.0.0.5.4.",
"4.9.u.3.3.5.:.O.]..X+X+XOX+X+X+X+X+X+X+X+X+X+X XL.d.o.*.s.u.5.s.",
"0.5.t.,.u.,.o.P..X+X+X+XoX+X+X+X+X+X+X+X+X+X+XOX_.X.d.3.3.,.h.5.",
"f.f.u.,.0.:.' ].OX+X+X+X+X+X+X+X+X+X+X+X+XOX+XOX}.H.@.2.j.,.f.0.",
"3.,.e.p.4.%.L. XOX+X+X+XoX+X+X+XoX+XoX+X+XOXoXOX.XE.@.9.g.0.u.9.",
"j.3.y.4.&. ._. X.XOXOXOXOXOXOXOXOXOX+X+X+XOXXXXX.X).$.9.u.9.0.y.",
"3.,.p.6.7.d.].{.}.}. X.X X.X.X.X X.X.XOXOXOXOX.X.X].>.u.u.9.u.0.",
",.u.4.4.4.@.X.D.A.J.K.K.K.E.E.W.!.^././.(.(.(.(._.Q.d.h.u.u.0.,.",
",.h.9.4.5.s.1.s.2.2.@.#.#.#.@.@.+.+.+.$. . .@.+.+.2.,.<.,.u.5.4.",
"5.7.5.5.5.5.i.0.<.3.3.3.3.3.9.y.t.g.f.u.6.4.e.y.u.u.t.t.g.g.*.*."
};
