/* XPM */
static char *Floor[] = {
/* columns rows colors chars-per-pixel */
"32 32 108 2 ",
"   c None",
".  c #4E2F37",
"X  c #4E3038",
"o  c #4F3038",
"O  c #503038",
"+  c #503039",
"@  c #503139",
"#  c #513139",
"$  c #51313A",
"%  c #52323A",
"&  c #53323B",
"*  c #53333B",
"=  c #54333B",
"-  c #54333C",
";  c #55333C",
":  c #55343C",
">  c #56343D",
",  c #56353D",
"<  c #57353D",
"1  c #57353E",
"2  c #58353E",
"3  c #58363E",
"4  c #58363F",
"5  c #59363F",
"6  c #5A363F",
"7  c #5A373F",
"8  c #5A3740",
"9  c #5B3740",
"0  c #5B3840",
"q  c #5B3841",
"w  c #5C3841",
"e  c #5D3841",
"r  c #5D3942",
"t  c #5E3942",
"y  c #5E3943",
"u  c #5F3A43",
"i  c #603A44",
"p  c #603B44",
"a  c #613B44",
"s  c #613B45",
"d  c #623B45",
"f  c #623C45",
"g  c #633C46",
"h  c #633D46",
"j  c #643D47",
"k  c #653D47",
"l  c #653E48",
"z  c #663E48",
"x  c #673F48",
"c  c #673F49",
"v  c #683F4A",
"b  c #68404A",
"n  c #69404A",
"m  c #6A404B",
"M  c #6A414B",
"N  c #6B414B",
"B  c #6B414C",
"V  c #6C424C",
"C  c #6D424D",
"Z  c #6D434D",
"A  c #6E434E",
"S  c #6F434E",
"D  c #6F444F",
"F  c #70444F",
"G  c #71454F",
"H  c #714550",
"J  c #724550",
"K  c #724551",
"L  c #724651",
"P  c #734651",
"I  c #744752",
"U  c #754752",
"Y  c #754753",
"T  c #754853",
"R  c #764853",
"E  c #774854",
"W  c #774954",
"Q  c #784954",
"!  c #784955",
"~  c #794A55",
"^  c #7A4A56",
"/  c #7A4B56",
"(  c #7B4B57",
")  c #7C4C57",
"_  c #7C4C58",
"`  c #7D4C59",
"'  c #7E4D59",
"]  c #7F4D59",
"[  c #7F4E5A",
"{  c #804E5A",
"}  c #804E5B",
"|  c #814E5B",
" . c #814F5B",
".. c #824F5C",
"X. c #83505C",
"o. c #83505D",
"O. c #84505D",
"+. c #84515D",
"@. c #85515E",
"#. c #86525E",
"$. c #86525F",
"%. c #87525F",
"&. c #875360",
"*. c #885360",
"=. c #895360",
"-. c #895361",
";. c #895461",
":. c #8A5461",
/* pixels */
"  :.:.&.@.@.:.N _  .x  .@.:.:.N E I 3 I @.N I :.N @.:.@.@.:.:.  ",
"  / @.@.x N / p I N > p x / / p y y > 8 p 3 p E p I E p _ :._ E ",
"  y N N y y y > 3 > > > > 8 8 > > > o > > > > 8 > 8 y 8 x N p 8 ",
"I y 3 8 > > 3 > > > o o o > > > o o o o X X o > > > > > 3 3 3 N ",
"@./ N > > o o o o o o o o o o o o o o o o o o o o o o o > y E @.",
"N _ N o o o o o o o o o o o o o o o o o o o o o o o o o . y _ I ",
"> 8 > o o o o o o o o o o o o . o o o o o o o o o o o o o > 8 3 ",
"p p y o o o o o o o o o o o o . o o o o o o o o o o o o o > p p ",
"@.E p o o o o o o o o o o o o o o o o o o o o o o o o o X 8 F  .",
"p y > o o o o o o o o o o o o o o o o o o o o o o o o o o > 3 p ",
"I I p o o o o o o o o o o o o o o o o o o o o o o o o o X 8 N I ",
":.@.N o o o o o o o o o o o o o o o o o o o o o o o o o o p _ :.",
"I p 3 o o o o o o o o o o o o o o o o o o o o o o o o o o > p N ",
"y y 3 o o o o o o o o o o o o o o o o o o o o o o o o o o > y y ",
"8 > > o o o o o o o o o o o o o o o o o o o o o o o o o o > > 3 ",
"y y y > o o o o o o o o o o o o o o o o o o o o o o o o > 8 y y ",
"@.@.@.p . o o o o o o o o o o o o o o o o o o o o o o o > _ @.@.",
"_ _ N 3 o o o o o o o o o o o o o o o o o o o o o o o o > p E _ ",
"y y 8 > o o o o o o o o o o o o o o o o o o o o o o o o > 3 y y ",
"y 8 > > o o o o o o o o o o o o o o o o o o o o o o o o o > 3 y ",
"y 8 > o o o o o o o o o o o o o o o o o o o o o o o o o o o > y ",
"8 > > o o o o o o o o o o o o o o o o o o o o o o o o o o > > 8 ",
"F p 3 o o o o o o o o o o o o o o o o o o o o o o o o o o > y N ",
"_ E x o o o o o o o o o o o o o o o o o o o o o o o o o o y I _ ",
"> 3 > o o o o . . . X o o o o o o o o o o o o o o o o o o > 3 > ",
"y p y o o o o X o . o o o o o o o o o o o o o o o o o o o > p y ",
"E @.I o o o o o o o o o o o o o o o o o o o o o o o o o . p @._ ",
"@.N y > > > > > o o o o o o o X o o o o o o o o o > > o > y x  .",
"  y 8 y > 3 8 > > > o o > > > > o o o o o o > > > 3 3 > 3 y 8 p ",
"  p E E y y p 3 y 8 > > 3 p p 3 > > o > > > > p > p p y F / N p ",
"  @.:.@.F / @.N / I y N I @.@.N x p > p N p v  .x _  .N _ :.@. .",
"        :.:.:.N _ @.v @.:.:.:.N / _ p _ :.F / :.v @.:.:.:.      "
};
