/* XPM */
static char *human_2[] = {
/* columns rows colors chars-per-pixel */
"32 32 96 2 ",
"   c None",
".  c #332D2F",
"X  c #362E30",
"o  c #3B2E32",
"O  c #383232",
"+  c #432F34",
"@  c #4C2F37",
"#  c #443136",
"$  c #4C3136",
"%  c #4F3A35",
"&  c #47343A",
"*  c #4F3038",
"=  c #413D3D",
"-  c #4D393F",
";  c #513A35",
":  c #5B3E37",
">  c #53333B",
",  c #59363F",
"<  c #53393B",
"1  c #5A3A3E",
"2  c #4A423E",
"3  c #5A4136",
"4  c #7D543B",
"5  c #5B3740",
"6  c #5D3942",
"7  c #623C45",
"8  c #6C3F45",
"9  c #663F48",
"0  c #683F4A",
"q  c #713F46",
"w  c #454242",
"e  c #494344",
"r  c #524D4C",
"t  c #5B524D",
"y  c #5B4E52",
"u  c #545356",
"i  c #585356",
"p  c #5C5659",
"a  c #654140",
"s  c #6C4045",
"d  c #6C424C",
"f  c #744146",
"g  c #724843",
"h  c #7D4C47",
"j  c #70444F",
"k  c #7B444A",
"l  c #734651",
"z  c #774854",
"x  c #7A4A56",
"c  c #7E4D59",
"v  c #63595B",
"b  c #715D50",
"n  c #6E675E",
"m  c #756259",
"M  c #756D6B",
"N  c #7E7465",
"B  c #75716D",
"V  c #777D7E",
"C  c #7D7D7C",
"Z  c #8D5A3F",
"A  c #814F48",
"S  c #894D4E",
"D  c #825049",
"F  c #975E41",
"G  c #814E5B",
"H  c #85515E",
"J  c #965551",
"K  c #985751",
"L  c #9D5952",
"P  c #A35D54",
"I  c #B36B57",
"U  c #875360",
"Y  c #895360",
"T  c #897D6C",
"R  c #8F836F",
"E  c #918571",
"W  c #9C8F78",
"Q  c #A3977E",
"!  c #7C7F81",
"~  c #7E8280",
"^  c #7F8383",
"/  c #868F8F",
"(  c #898D88",
")  c #938F81",
"_  c #AC9E82",
"`  c #B4A68B",
"'  c #A1A195",
"]  c #A0ADAD",
"[  c #B7C0BF",
"{  c #C5C8B9",
"}  c #E0D0AA",
"|  c #B4C5C5",
" . c #BBC4C3",
".. c #BBC5C3",
"X. c #BCC5C3",
"o. c #DBDBC6",
/* pixels */
"  Y Y U H H Y d c G 9 G H Y Y d z z , l H d l Y d H Y H H Y Y   ",
"  x H H 9 d x 7 l d > 7 9 x x 7 6 6 > 6 7 , 7 z 7 z z 7 x Y c z ",
"  6 d d 6 6 6 > , > > > > 5 5 > > > * > > > > 5 > 5 6 5 9 d 7 5 ",
"l 6 , 5 > > , > > > * * * > > > * * * * * * * > > > > > , , , d ",
"H x 0 > > * * * * * * * * * * * * * * * * * * * * * * * > 6 z H ",
"d c d * * * * * * * * * * * * * * * * * * * * * * * * * @ 7 c l ",
"> 5 > * * * * * * * @ @ * * * * * * * * * * * * * * * * * > 5 , ",
"7 7 6 * * * * * * + e - @ * * * * * * * * * * * * * * * * > 7 7 ",
"H z 7 * * * * * * + ^ C * @ * * * * * * * * * * * * * * * 5 l G ",
"7 6 > * * * * * * + B [ i @ * * * * * * * * * * * * * * * > , 7 ",
"l l 7 * * * * * * + M X.i @ * * * * * * * * * * * * * * * 5 j l ",
"Y H d * * * * * * + M X.u o + + + + + * * * * * * * * * @ 7 G Y ",
"j 7 , * * * * * * + M X.p , 8 s s s 1 * * * * * * * * * * > 7 d ",
"6 6 , * * * * * * + M X.v f k k k k k > + * * * * * * * * > 6 6 ",
"5 > > * * * * * * + M X.v f s 1 1 1 1 # + * * * * * * * * > > 5 ",
"6 6 6 > * * * * * + M X.v 7 m n t N r = + * * * * * * * > 5 6 6 ",
"H H H 7 @ * * * * + M X.v 1 T { B W ^ V + * * * * * * * > c H H ",
"c c d , * * * * * + M X.v 1 T o.) _ ' ( * * * * * * * * > 7 z G ",
"6 6 6 > * * * * + o M X.p * T } Q E ` R 4 ; @ * * * * * > , 6 6 ",
"6 5 > > * * * @ X O t C e . t T 2 . t b Z ; @ * * * * * * > , 6 ",
"6 5 > * * * * * + O = w O < h h A D 1 ; F % @ * * * * * * * > 6 ",
"6 > > * * * * * * + / | y f L P I I g : Z % @ * * * * * * > > 5 ",
"j 7 , * * * * * * # ! ] y q S J K J a 3 : * * * * * * * * > 6 d ",
"c x 9 * * * * * * * * & & * 1 1 1 < # o * * * * * * * * * 6 l c ",
"> , > * * * * * * * * @ o * # . # * o @ * * * * * * * * * > , > ",
"6 7 6 * * * * * * * * * + # * + # * * * * * * * * * * * * > 7 6 ",
"z H l * * * * * * * * * * @ * * * @ * * * * * * * * * * @ 7 H c ",
"H d 6 > > > > > * * * * * * * * * * * * * * * * * > > * > 6 9 G ",
"  6 5 6 > , 5 > > > * * > > > > * * * * * * > > > , , > , 6 5 7 ",
"  7 z z 6 6 7 , 6 5 > > , 7 7 , > > > > > > > 7 > 7 7 6 j x d 7 ",
"  H Y H j x H d x l 6 d l H H d 9 7 > 7 d 7 0 G 9 c G d c Y H G ",
"        Y Y Y d c H 0 H Y Y Y d x c 7 c Y j x Y d H Y Y Y       "
};
