/* XPM */
static char *_aaee87e537b4d86c570bbd3bd86e4bdwMqsjgacY96i2JDd[] = {
/* columns rows colors chars-per-pixel */
"32 32 193 2 ",
"   c #010205",
".  c #00040B",
"X  c #00090C",
"o  c #000510",
"O  c #000B14",
"+  c #000B1B",
"@  c #061011",
"#  c #00131A",
"$  c #121413",
"%  c #001628",
"&  c #001D2D",
"*  c #001827",
"=  c #001C34",
"-  c #00242C",
";  c #002B3A",
":  c #002837",
">  c #37322F",
",  c #282828",
"<  c #01384D",
"1  c #413F42",
"2  c #134252",
"3  c #28424F",
"4  c #2F484D",
"5  c #225159",
"6  c #355057",
"7  c #195265",
"8  c #195B73",
"9  c #365B63",
"0  c #1E657B",
"q  c #4B5356",
"w  c #5A5556",
"e  c #5D5D5D",
"r  c #474546",
"t  c #5C605F",
"y  c #475C61",
"u  c #5C676B",
"i  c #676B68",
"p  c #73726E",
"a  c #697676",
"s  c #787A76",
"d  c #7F8579",
"f  c #1C6882",
"g  c #286D8C",
"h  c #25728E",
"j  c #36768B",
"k  c #4D7787",
"l  c #3285A5",
"z  c #5D919F",
"x  c #698A99",
"c  c #5995AD",
"v  c #539AB0",
"b  c #6292A6",
"n  c #64A0B8",
"m  c #7DA9B6",
"M  c #61A6C5",
"N  c #6CB9CB",
"B  c #65B8D4",
"V  c #7BBCD3",
"C  c #75BCD9",
"Z  c #7ABFDC",
"A  c #72C1DE",
"S  c #7AC7DF",
"D  c #5CCFEC",
"F  c #5BD1ED",
"G  c #6ACDE5",
"H  c #6BC6EB",
"J  c #66CBEB",
"K  c #6CCDEC",
"L  c #68C6E5",
"P  c #74C5E4",
"I  c #7AC4E5",
"U  c #74CAE5",
"Y  c #7BC9E3",
"T  c #72C7E8",
"R  c #72CCEC",
"E  c #7CCBEB",
"W  c #65D3EE",
"Q  c #6BD4EE",
"!  c #63D9ED",
"~  c #78D0E6",
"^  c #72D2EE",
"/  c #66CDF4",
"(  c #6BCDF4",
")  c #6CCEFB",
"_  c #67CCFA",
"`  c #73CDF4",
"'  c #79CDF2",
"]  c #71CFFA",
"[  c #79CEFF",
"{  c #72C5F1",
"}  c #65D3F4",
"|  c #6CD3F4",
" . c #62DAF5",
".. c #6ED9F5",
"X. c #66D5FB",
"o. c #6CD2FB",
"O. c #65D9F9",
"+. c #6DDAFD",
"@. c #72D2F4",
"#. c #7AD3F5",
"$. c #72D3FB",
"%. c #7AD3FD",
"&. c #74D9FC",
"*. c #78DAF9",
"=. c #77E0F6",
"-. c #8B8D8C",
";. c #908E8F",
":. c #A5A29E",
">. c #8E9CA7",
",. c #A19CA0",
"<. c #9FA3A4",
"1. c #A2A5A5",
"2. c #B7B7B9",
"3. c #B9BBBB",
"4. c #B7B1B1",
"5. c #C7C2BF",
"6. c #85B9C7",
"7. c #85CADD",
"8. c #86CADA",
"9. c #92CCDB",
"0. c #8CD2DC",
"q. c #BAC6C7",
"w. c #A3D6DA",
"e. c #84CDE3",
"r. c #83CCEA",
"t. c #87CAE8",
"y. c #97CDE8",
"u. c #84D2EA",
"i. c #8AD2E9",
"p. c #8CD9EB",
"a. c #9FD7E4",
"s. c #93D4EB",
"d. c #82D4F4",
"f. c #83D8F6",
"g. c #87D7FC",
"h. c #84DBFC",
"j. c #89DAF9",
"k. c #8ADAF6",
"l. c #96DFF0",
"z. c #9ADBF6",
"x. c #A6CAE2",
"c. c #A7D6E6",
"v. c #A4D6EB",
"b. c #A6D9EA",
"n. c #A2DCF5",
"m. c #A8DBF6",
"M. c #B5DEF9",
"N. c #89E3FD",
"B. c #A9E3F4",
"V. c #AAE4FB",
"C. c #A7EDFF",
"Z. c #A2E0F7",
"A. c #B4E3F5",
"S. c #B2EAFB",
"D. c #BCEBFF",
"F. c #B4E9F8",
"G. c #BDF1FF",
"H. c #C8D3CF",
"J. c #C7D7D6",
"K. c #C9E6EE",
"L. c #D8E4E9",
"P. c #C9EEFF",
"I. c #C0E1F2",
"U. c #D2EDFA",
"Y. c #CBF4FE",
"T. c #CEF9FF",
"R. c #C3F1FE",
"E. c #DAF7FF",
"W. c #D4FEFF",
"Q. c #DBFFFF",
"!. c #D2F2FF",
"~. c #E9E6E7",
"^. c #F6EEEB",
"/. c #E6F1E3",
"(. c #F4EAF3",
"). c #E3F6FB",
"_. c #E1FFFF",
"`. c #E5FFFF",
"'. c #E4FEFF",
"]. c #EAFFFF",
"[. c #ECFEFF",
"{. c #F7F4F4",
"}. c #F4FFF7",
"|. c #FBFDF5",
" X c #F1F5FB",
".X c #F1FFFF",
"XX c #F5FFFF",
"oX c #F7FFFF",
"OX c #F3FEFE",
"+X c #FEFAFF",
"@X c #F9FFFF",
"#X c #FFFDFF",
"$X c #FCFEFD",
/* pixels */
"X.} o.] @.| | ! o.o.o.) ( | | @.o.| @.@.| | o.o.o.@.` @.' ^ R @.",
"} o.o.o.o.| Q | o.o.o.&.&.| ) o.o.) ( o.| | } o.o.] ` | @.@.@.| ",
"| | o.X.o.} | | ) ) ) o.| } $.o.o.o.o.o.} +.O.o.o.o.o.o.X.X.| o.",
"| o.o.o.o.} | | ) $.o.o.} | $.( ) o.o.| } } | | | o.) o.X.X.o.o.",
"$.) ] ] o.@.| @.$.) ) o.Q Q | @.` ( ) o.+.o.K Q Q @.( o.X.X.o.o.",
"] @.] @.@.| ] o.) $.] ` ^ U S e.e.r.E R K o.*.@.| | @.o.o.X.o.o.",
"] o.| ! } o.o.) ) $.` U p.F.Y.'.`.Q.Y.m.E Q @.( ` o.| o.o.o.) o.",
"] | | ! | o.o.o.o.` E n.Q.[..X X@X XXX[.V.E | o.) @.o.o.| o.@.o.",
"o.o.| o.| o.} +...L s.`.).H.q.J.XX|.@X.X`.n.J &.$.[ | | | Q | [ ",
") o.o.| | o.} | G i.W..Xi 1 q a #XL.-.<.>.c.~ } $._ | +.Q @.o.( ",
"o.o.o.( o.X.X.| Y R.[.@X{.#X+X+X+X2.i d s L.l.K _ o.} } Q J &.o.",
"^ T U Y @.} +.K s.Q.XX|.|.~.(.+X#X#X|.|.|.[.S.Y $.o.+.J j.z.H ` ",
"8.n.T.T.z.T ( R n.[..X#X$X:.5.|.+X|.d /.|.[.Y.I E G G u.W.`.B.8.",
"c.'.[.].`.V.C e.x..X#X|.oX$X|.^.+X|.|.$XOXXX!.y.s.s.0.F.[.XX`.w.",
"P.].XX@XXX).U.U. X#X$X|.}.oX3., w ~.@X@X#X#X.X].[.`.[.OXoXoX].I.",
"A.'.[.$X@X@X[..X.X.X@X@X}.oXt 2.,.r #X X#XXX`.'.'.].].OXoXOX].M.",
"r.V.]..X[.E.A.V.z.D.[. X@X|.p 4.#Xw :.@X].M.r.d.r.i.7.a.`.[.W.y.",
"H r.B.Q.Q.v.Z E T t.'.@X#X|.:.> {.e <.].S.I H ) ( ( ^ A v.Q.C.T ",
"&.| U k.e.U ' %.R i.m y H.|.{.;.$ u ].D.E ` $.o.@.@.@.| U j.K ^ ",
"} } Q Q G *.` ( R p.5 X a @X[..X).].D.Y | +.o.| @.$.J &.o.J Q ! ",
"} | Q Q @.( %.g.Y 9.9 X y K.R.R.A.9.Y K | W o.o.o.o.| ( o.o.&.Q ",
"| | @.] o.o.' g : - # O # & j 7.2 * B *.Q J $._ o.o.} o.o._ K | ",
"] ` [ ] ) &.C % O X     O + 8 8.O o v f.k.d.( &.| ..Q W ) $.$.( ",
"[ ) [ [ X.| u.z 4 X     * b S V O O 6.V j M ' ) o.| O.} o.$.) o.",
"X.o.) X.O...7.k # . . o ; s.d.C * . 6 - + < g._ ) o.X.O.| o.o.) ",
"o.X.} +.F *.0 + O 3 x + = P ' A & . @ O ; n U o.) X.o.} | @.o.o.",
"$.K ( } } *.h = j p.i.f l #.$.d.; O ; j r.f.` $.) ) ] o.@.| o.X.",
"@.| &.| | @.f.P #.#.R h.%.@.( #.c 7 N N.( / &.) @.$.] ] @.Q | } ",
"+.o.o.( $.%.{ g.@./ | K K | Q $.g.g.#.L o.$.) o.o.o.o.@.@.Q ! ! ",
"X.o.$.o.( ` { $.X.o.$.$...Q | R H ( } o.) ( $./ X.X.) @.R ^ Q ! ",
"o._ } | | | &._ o.( $.o.D +.| $.@.$.} ..] %.} +.X.o.o.) ] ] o.o.",
"o.o.| ! | o.( $.o.o.@.}  . .| ` | | } } %.( }  .} } o.o.] $.) $."
};
