/* XPM */
static char *_d0373ca7246420bdda459229a6e6e281CZ6ZhlpGH42D2Iz[] = {
/* columns rows colors chars-per-pixel */
"32 32 188 2 ",
"   c #010205",
".  c #00040B",
"X  c #00090C",
"o  c #000510",
"O  c #000B14",
"+  c #000B1B",
"@  c #061011",
"#  c #00131A",
"$  c #121413",
"%  c #001B27",
"&  c #001628",
"*  c #001D2D",
"=  c #001526",
"-  c #001C34",
";  c #00242C",
":  c #002537",
">  c #002B37",
",  c #002B3A",
"<  c #37322F",
"1  c #282828",
"2  c #01384D",
"3  c #413F42",
"4  c #134252",
"5  c #28424F",
"6  c #2F484D",
"7  c #225159",
"8  c #355057",
"9  c #195265",
"0  c #195B73",
"q  c #365B63",
"w  c #1E657B",
"e  c #4B5356",
"r  c #5A5556",
"t  c #5D5D5D",
"y  c #474546",
"u  c #5C605F",
"i  c #475C61",
"p  c #5C676B",
"a  c #676B68",
"s  c #73726E",
"d  c #697676",
"f  c #787A76",
"g  c #7F8579",
"h  c #1C6882",
"j  c #286D8C",
"k  c #25728E",
"l  c #36768B",
"z  c #4D7787",
"x  c #3285A5",
"c  c #5D919F",
"v  c #698A99",
"b  c #5995AD",
"n  c #539AB0",
"m  c #6292A6",
"M  c #64A0B8",
"N  c #7DA9B6",
"B  c #61A6C5",
"V  c #6CB9CB",
"C  c #65B8D4",
"Z  c #7BBCD3",
"A  c #75BCD9",
"S  c #7ABFDC",
"D  c #72C1DE",
"F  c #7AC7DF",
"G  c #5CCFEC",
"H  c #5BD1ED",
"J  c #6ACDE5",
"K  c #6BC6EB",
"L  c #66CBEB",
"P  c #6CCDEC",
"I  c #68C6E5",
"U  c #74C5E4",
"Y  c #7AC4E5",
"T  c #74CAE5",
"R  c #7BC9E3",
"E  c #72C7E8",
"W  c #72CCEC",
"Q  c #7CCBEB",
"!  c #65D3EE",
"~  c #6BD4EE",
"^  c #63D9ED",
"/  c #78D0E6",
"(  c #72D2EE",
")  c #66CDF4",
"_  c #6BCDF4",
"`  c #6CCEFB",
"'  c #67CCFA",
"]  c #73CDF4",
"[  c #79CDF2",
"{  c #71CFFA",
"}  c #79CEFF",
"|  c #72C5F1",
" . c #65D3F4",
".. c #6CD3F4",
"X. c #62DAF5",
"o. c #6ED9F5",
"O. c #66D5FB",
"+. c #6CD2FB",
"@. c #65D9F9",
"#. c #6DDAFD",
"$. c #72D2F4",
"%. c #7AD3F5",
"&. c #75D8F7",
"*. c #72D3FB",
"=. c #7AD3FD",
"-. c #74D9FC",
";. c #7ADBFA",
":. c #77E0F6",
">. c #8B8D8C",
",. c #908E8F",
"<. c #A5A29E",
"1. c #8E9CA7",
"2. c #A19CA0",
"3. c #9FA3A4",
"4. c #A2A5A5",
"5. c #B7B7B9",
"6. c #B9BBBB",
"7. c #B7B1B1",
"8. c #C7C2BF",
"9. c #85B9C7",
"0. c #85CADD",
"q. c #86CADA",
"w. c #92CCDB",
"e. c #8CD2DC",
"r. c #BAC6C7",
"t. c #A3D6DA",
"y. c #84CDE3",
"u. c #83CCEA",
"i. c #8ACCEB",
"p. c #83C6E3",
"a. c #97CDE8",
"s. c #84D2EA",
"d. c #8AD2E9",
"f. c #8CD9EB",
"g. c #9FD7E4",
"h. c #93D4EB",
"j. c #82D4F4",
"k. c #83D8F6",
"l. c #87D7FC",
"z. c #84DBFC",
"x. c #89DAF9",
"c. c #8ADAF6",
"v. c #96DFF0",
"b. c #9ADBF6",
"n. c #A6CAE2",
"m. c #A7D6E6",
"M. c #A4D6EB",
"N. c #A6D9EA",
"B. c #A2DCF5",
"V. c #A8DBF6",
"C. c #B5DEF9",
"Z. c #89E3FD",
"A. c #A2E0F7",
"S. c #A9E3F4",
"D. c #AAE4FB",
"F. c #A7EDFF",
"G. c #B4E3F5",
"H. c #B2EAFB",
"J. c #BCEBFF",
"K. c #B4E9F8",
"L. c #BDF1FF",
"P. c #C8D3CF",
"I. c #C7D7D6",
"U. c #C9E6EE",
"Y. c #D8E4E9",
"T. c #C9EEFF",
"R. c #C0E1F2",
"E. c #D2EDFA",
"W. c #CBF4FE",
"Q. c #CEF9FF",
"!. c #C3F1FE",
"~. c #DAF7FF",
"^. c #D4FEFF",
"/. c #DBFFFF",
"(. c #D2F2FF",
"). c #E9E6E7",
"_. c #F6EEEB",
"`. c #E6F1E3",
"'. c #F4EAF3",
"]. c #E3F6FB",
"[. c #E4FEFF",
"{. c #ECFEFF",
"}. c #F7F4F4",
"|. c #F4FFF7",
" X c #FBFDF5",
".X c #F1F5FB",
"XX c #F3FEFE",
"oX c #FCFEFD",
/* pixels */
"O. .+.{ $.....^  .+.+.` _ _ $.$.+...$.$.$...#.O.$.{ ] ] %.( ] $.",
" .+.+.+.+...~ ..-.` ` -.-.+._ +.+.` _ +... . .+.` { ] ..] ..$...",
"....+.O.+. .....` ` ` +.....+.+.+.+.+.+.+.#. . ...+.+.+.+.O.....",
"..+.+.+.+. .....+.*.+.+.....#.) ` +.+... . ...o...+.+.+.O.O.+.+.",
"*.` { { +.$...$.*.` ` +.~ ~ ..$.] _ *.+.#.O.P ..~ $.$.$.O.O.+.+.",
"{ $.{ $.$...{ +.` *.{ ] ( T F y.y.u.Q W P +.&.$.....` +.O.O.+.+.",
"{ +...^  .+.+.` ` *.] T h.K.W.[.{./.W.V.Q P &._ $.+. .+.+.+.` +.",
"{ ....^ ..+.+.+.+.] Q B.^.{.XX.XXX.XXX{.D.Q _ +.+.{ +.+...+.` $.",
"+.+...+...+. .#.o.I h.[.].P.6.I.|.oXoXXX[.B.L -.{ { .. ...~ ] *.",
"` +.+.....+. ...J d.^.XXa 3 e d oXY.>.3.1.m./  .{ ` ..o.~ ..$._ ",
"+.+.+._ +.O.O...R !.{.oX}.oXoXoXoX5.a g f Y.v.P _ -.) O...L -.+.",
"( E T R $. .#.P h./.XX XoX).'.oXoXoX X X X{.H.R *.+.#.L x.b.K ] ",
"q.B.Q.Q.b.E ..W B.{.XX XoX4.8. XoX}.g `.XXXXW.Y W J J s.^.[.S.q.",
"m.[.{.{.[.D.A p.n.XXoXoXoXoX X_.oXoX X XoXXX(.a.h.h.e.K.{.XX[.t.",
"T.{.XXoXXX].(.E.{.oXoX X|.oX6.1 r ).oXoXoXoXXX{.XX[.{.XXXX|.{.R.",
"G.[.{.oXoXXXXX{.XXXXoXoX|.|.p 7.2.y oX.XoXXX[.[.[.{.{.XXoXXX{.C.",
"u.D.[.XXXX~.G.D.a.J.XX.XoX Xs 7.oXr <.oX{.C.i.j.u.d.0.g.[.{.^.a.",
"K u.S././.M.D Y [ i./.XXoX X<.< }.t 4.{.H.Y K +._ _ $.D N./.F.E ",
"#...T c.y.T [ =.] s.N i P.oX}.,.$ p {.J.Q _ -.*.$.] $...T x.J ( ",
" . .~ ( P &.] _ W f.7 X d oX{.XX[.{.J.Y _ #.+.) _ &.L -.+.L X...",
"......~ +.` =.x.F w.q X e U.!.L.G.w.F P &.! +.+.+.+. .+.-.+.+.~ ",
"~ ..$.] +.$.[ j : ; # X # * l e.4 = C &.~ L -.' +.+...+.` ' P ..",
"{ { } { ` -.A = O X     + + 0 q.o o n k.k.j._ -.....! ! ` *.-._ ",
"{ { } { O.~ s.c 6 @ X   & m S Z + O 9.Z l B [ ` +...o. .+.{ ` +.",
"` +.` O.O.~ y.z # . . o , d.j.A = . 8 ; O 2 l.' +.O.O. .+.$.+.+.",
"+.+.O.@.H :.w + O 5 v + - U ] D * X X O , M E -.` +.+... .+.+.+.",
"-.P ..o.^ &.k - l h.u.h x %.$.j., + > l u.j.{ { ` ` *.+.$...+.O.",
".._ *..._ $.l.U k.%.W Z.=.&.) j.b 9 V Z...' *.` $.{ { { $.~ .. .",
"O.+.+._ *.=.| =.$.) $.P P .._ &.x.l.&.J +.$.` +.+.+.+.{ $.~ ~ ^ ",
"O.+.-.$.] *.| =.+.+.+.*.o.~ ..W K |  .+.` ` -.) O.O.+.$.( ( ^ ^ ",
"+.'  . .&...-.) +.) *. .G @.) *...&. .+.{ =. .@. .+.+.` { *.+.+.",
"+.+...!  ...` *.+.+...o.@.@...] $... . .=._  .X... .+.+.{ { { ` "
};
