/* XPM */
static char *rock_wall[] = {
/* columns rows colors chars-per-pixel */
"32 32 125 2 ",
"   c None",
".  c #4E2F37",
"X  c #4F3038",
"o  c #4D393C",
"O  c #52333A",
"+  c #59363F",
"@  c #513A3E",
"#  c #4B423F",
"$  c #5B3740",
"%  c #513E41",
"&  c #5D3842",
"*  c #623C45",
"=  c #663E48",
"-  c #683F4A",
";  c #4D4642",
":  c #4D4C46",
">  c #524344",
",  c #524946",
"<  c #544B49",
"1  c #53554D",
"2  c #52584E",
"3  c #565751",
"4  c #565C52",
"5  c #595D55",
"6  c #6C424C",
"7  c #70444F",
"8  c #734651",
"9  c #764854",
"0  c #7A4A56",
"q  c #7E4D59",
"w  c #5A6057",
"e  c #5C655A",
"r  c #5F685D",
"t  c #616A5F",
"y  c #636E61",
"u  c #636E62",
"i  c #626D61",
"p  c #646F61",
"a  c #646E62",
"s  c #646F63",
"d  c #636E62",
"f  c #657162",
"g  c #667163",
"h  c #657164",
"j  c #667164",
"k  c #667165",
"l  c #677264",
"z  c #667265",
"x  c #677365",
"c  c #677266",
"v  c #677366",
"b  c #677466",
"n  c #677567",
"m  c #687062",
"M  c #687466",
"N  c #697466",
"B  c #687467",
"V  c #687567",
"C  c #697567",
"Z  c #687667",
"A  c #697568",
"S  c #697668",
"D  c #6A7668",
"F  c #6A7768",
"G  c #6A7669",
"H  c #6A7769",
"J  c #6B7869",
"K  c #6A786A",
"L  c #6B786A",
"P  c #6B796B",
"I  c #6C796A",
"U  c #6C796B",
"Y  c #6D7A6A",
"T  c #6C7A6B",
"R  c #6F7C6B",
"E  c #6C7B6C",
"W  c #6D7B6C",
"Q  c #6D7C6C",
"!  c #6D7C6D",
"~  c #6E7C6C",
"^  c #6F7D6C",
"/  c #6F7C6D",
"(  c #6E7D6D",
")  c #6F7D6D",
"_  c #6E7D6E",
"`  c #6F7E6E",
"'  c #6F7E6F",
"]  c #6F7F6F",
"[  c #707F6E",
"{  c #707F6F",
"}  c #804E5A",
"|  c #814E5B",
" . c #814F5B",
".. c #824F5C",
"X. c #814E5B",
"o. c #83505C",
"O. c #83505D",
"+. c #84505D",
"@. c #84515D",
"#. c #85515E",
"$. c #86525E",
"%. c #86525F",
"&. c #87525F",
"*. c #84515E",
"=. c #875360",
"-. c #885360",
";. c #895361",
":. c #895461",
">. c #8A5461",
",. c #885360",
"<. c #70806F",
"1. c #71806F",
"2. c #72816F",
"3. c #718070",
"4. c #718170",
"5. c #728170",
"6. c #738270",
"7. c #738371",
"8. c #748270",
"9. c #748370",
"0. c #758471",
"q. c #758572",
"w. c #778673",
"e. c #778773",
"r. c #788773",
/* pixels */
"  >.>.=. .#.>.6 q  .*  .#.=.>.6 9 8 + 8 #.6 8 #.- #.=.#.#.>.>.  ",
"  0 #.#.* 6 0 * 8 6 + * = 9 0 * & & + $ * + * 9 * 8 8 * 0 >.q 9 ",
"  & 6 6 & + & + + + + + + $ $ + + + X + + + + + + $ & $ = 6 * $ ",
"8 & + $ + + + + + + X . X + + X X X X . . . X + + + + + + + + 6 ",
"#.0 - + X X X + + + X X X X X X X X . . . . . . X X X X + & 8 #.",
"6 q 6 X X X + + + + X X X X . . . . . . . . . . X X X X . & 0 8 ",
"+ $ + X X X + + + + X X X X X X @ @ @ @ + . . X X X . X X + $ + ",
"* * & X X X + + + + X X X X X 1 5 5 5 5 , X . . X X . . X + * * ",
"#.9 * . X X + + + + X . % < 1 p L L N x r , X . X X X X . $ 7  .",
"* & + . X X + + @ , , , 5 N x [ 3.3.L L N r , X X X X X X + + * ",
"8 8 * . X X + @ , r r r x 2.L L L L S x L p 4 , X X X X . $ 6 8 ",
">.#.6 . . . @ < r L L S N N x L L L L N x p r 3 @ . X X . * q =.",
"7 * + X X X < t 3.3.[ L L x r p N N N x r p x 5 @ X X X X + * 6 ",
"& & + X X X < x r.3.[ [ L L p r r t x r p L L t , X X X X + & $ ",
"$ + + X X X , t r.3.[ [ [ L L x p p r 2 x 3.L S r , o X X + + + ",
"& & & + X X # r 3.3.3.[ [ [ [ [ 3.S w 2 p L L L x 4 # X + + $ & ",
"#.#.#.* . X # 4 L 3.3.L [ 3.3.3.3.[ N 4 r S L N x 4 # X + q #.#.",
"q q 6 + . X # 4 x S S S L 3.3.3.[ L S p r r x x r 1 # X + * 9 q ",
"& & $ + X X # 1 r x x x S L L L L S N x w 4 r r 1 ; X X + + & & ",
"& $ + + X X o : 4 r x x x x x N N x p p 4 4 4 1 ; o X X X + + & ",
"& + X . X X X o : 4 t p p p p p p t w 4 2 1 1 ; X X X X X X + & ",
"& + X . X X + + o : 4 5 5 5 5 5 5 5 4 4 1 : ; X X X X X X X + $ ",
"7 * + . X X + + + o % % % % % % % % % % o o X X X X X X X + & 6 ",
"q 9 = X X X X + + X X X X X . . X X X X X X X X X X X X . & 8 q ",
"+ + + X X X X . . . . . X . . X X X X X X . . X X X X X X + + + ",
"& * & X X X X . . . X X X X . . X X X X X X . . X X X X X + * & ",
"9 #.8 X X X X X X X X X X X X X X X X X X X X X X X X X . * #.q ",
"#.6 & + + + + X X X X X X . X X X X X X X X X X X + + X + & =  .",
"  & $ & + + $ + + + X X X + + + X X X X X X + + + + + + + & $ * ",
"  * 9 9 & & * + & $ + + + * * + + + X + + + + * + * * $ 7 0 6 * ",
"  #.>.#.7 0 #.6 0 8 & 6 8 #.#.6 = * + * 6 & =  .= q  .6 q >.#. .",
"        >.>.>.6 q #.- #.>.>.>.6 0 q * q >.6 0 =.-  .>.#.>.      "
};
